<svg id="Layer_1" data-name="Layer 1" xmlns="http://www.w3.org/2000/svg" viewBox="0 0 80.4 58.03"><defs><style>.cls-1{fill:#00d1b7;}.cls-2{fill:#8c198f;}.cls-3{fill:#ff456e;}.cls-4{fill:#fc0;}</style></defs><path class="cls-1" d="M65.7,24.56l-7.8,7.62a1.51,1.51,0,0,1-2.09,0L37.88,14.66a1.41,1.41,0,0,1,0-2L45.68,5a1.51,1.51,0,0,1,2.09,0L65.7,22.51A1.43,1.43,0,0,1,65.7,24.56Z"/><path class="cls-2" d="M37.88,34.44l7.8,7.62a1.49,1.49,0,0,0,2.09,0L65.7,24.55a1.43,1.43,0,0,0,0-2.05l-7.8-7.62a1.51,1.51,0,0,0-2.09,0L37.88,32.4A1.41,1.41,0,0,0,37.88,34.44Z"/><path class="cls-3" d="M11.48,35l7.8,7.62a1.51,1.51,0,0,0,2.09,0L39.3,25.05a1.41,1.41,0,0,0,0-2l-7.8-7.62a1.51,1.51,0,0,0-2.09,0L11.48,32.91A1.41,1.41,0,0,0,11.48,35Z"/><path class="cls-4" d="M39.3,44.83l-7.8,7.62a1.49,1.49,0,0,1-2.09,0L11.48,34.94a1.43,1.43,0,0,1,0-2l7.8-7.62a1.51,1.51,0,0,1,2.09,0L39.3,42.79A1.41,1.41,0,0,1,39.3,44.83Z"/></svg>