<svg id="Layer_1" data-name="Layer 1" xmlns="http://www.w3.org/2000/svg" viewBox="0 0 235.05 58.03"><defs><style>.cls-1{fill:#fff;}.cls-2{fill:#00d1b7;}.cls-3{fill:#8c198f;}.cls-4{fill:#ff456e;}.cls-5{fill:#fc0;}</style></defs><path class="cls-1" d="M224.51,23.67a2.25,2.25,0,1,1-2,2.23,2.14,2.14,0,0,1,2-2.23m0-2.25a4.28,4.28,0,0,0-4.07,4.48,4.09,4.09,0,1,0,8.14,0,4.28,4.28,0,0,0-4.07-4.48Z"/><path class="cls-1" d="M89.64,42.62,82.14,21H86l5.74,17.32L97.54,21h3.86L93.9,42.62Z"/><path class="cls-1" d="M103.5,36.32a4.18,4.18,0,0,0,1.69,2.7,5.46,5.46,0,0,0,3.24.94,4.53,4.53,0,0,0,4-1.91l2.74,1.61A7.63,7.63,0,0,1,108.4,43a8.27,8.27,0,0,1-6.08-2.3A7.86,7.86,0,0,1,100,34.9a7.93,7.93,0,0,1,2.28-5.78,7.85,7.85,0,0,1,5.87-2.33,7.23,7.23,0,0,1,5.57,2.37,8.25,8.25,0,0,1,2.17,5.77,10.53,10.53,0,0,1-.12,1.39Zm0-2.71h9.07a4.3,4.3,0,0,0-4.41-3.8,4.68,4.68,0,0,0-3.09,1A4.56,4.56,0,0,0,103.47,33.61Z"/><path class="cls-1" d="M121.4,29.78a4.72,4.72,0,0,1,4.75-2.87v3.61a4.92,4.92,0,0,0-3.33.91,3.93,3.93,0,0,0-1.42,3.41v7.78h-3.34V27.19h3.34Z"/><path class="cls-1" d="M136.86,30.4H133v7.4a1.9,1.9,0,0,0,.43,1.38,1.94,1.94,0,0,0,1.29.46c.56,0,1.27,0,2.11,0v3q-3.83.47-5.49-.66c-1.12-.76-1.67-2.14-1.67-4.16V30.4h-2.84V27.19h2.84V23.85l3.33-1v4.32h3.83Z"/><path class="cls-1" d="M141.12,36.32a4.19,4.19,0,0,0,1.7,2.7,5.42,5.42,0,0,0,3.24.94,4.51,4.51,0,0,0,4-1.91l2.75,1.61A7.66,7.66,0,0,1,146,43a8.26,8.26,0,0,1-6.08-2.3,7.83,7.83,0,0,1-2.32-5.82,7.9,7.9,0,0,1,2.29-5.78,7.81,7.81,0,0,1,5.86-2.33,7.23,7.23,0,0,1,5.57,2.37,8.26,8.26,0,0,1,2.18,5.77,9.27,9.27,0,0,1-.13,1.39Zm0-2.71h9.07a4.39,4.39,0,0,0-1.56-2.84,4.46,4.46,0,0,0-2.85-1,4.7,4.7,0,0,0-3.09,1A4.61,4.61,0,0,0,141.09,33.61Z"/><path class="cls-1" d="M168.71,42.62h-3.86L161,37.34l-3.86,5.28h-3.89l5.8-7.93-5.49-7.5h3.86L161,32.06l3.55-4.87h3.88l-5.49,7.53Z"/><path class="cls-1" d="M178.25,29.84A7.27,7.27,0,0,1,182.06,32a5.81,5.81,0,0,1,1.47,4.06,6.32,6.32,0,0,1-2.19,5.09A8.07,8.07,0,0,1,176,43a8.62,8.62,0,0,1-4.43-1.14,6.49,6.49,0,0,1-2.83-3.33l3-1.76q.94,2.77,4.23,2.77a4.3,4.3,0,0,0,2.93-.94,3.53,3.53,0,0,0,0-5.08,4.39,4.39,0,0,0-2.93-.92h-.81l-1.42-2.13,4.66-6.14h-9V21h13.27v3Z"/><path class="cls-1" d="M192.26,28.27a7.6,7.6,0,0,1,5.5,2.05,7.06,7.06,0,0,1,2.13,5.32A7.08,7.08,0,0,1,197.76,41a8.43,8.43,0,0,1-11,0,7.08,7.08,0,0,1-2.13-5.33,7.53,7.53,0,0,1,1.29-4.35L192.76,21h4l-4.94,7.26Zm0,11.39a4,4,0,0,0,2.93-1.1,4.27,4.27,0,0,0,0-5.83,4,4,0,0,0-2.93-1.1,4.1,4.1,0,0,0-3,1.1,4.3,4.3,0,0,0,0,5.83A4.1,4.1,0,0,0,192.26,39.66Z"/><path class="cls-1" d="M215.86,40a7.91,7.91,0,0,1-12.5,0,13.47,13.47,0,0,1-2.24-8.14,13.5,13.5,0,0,1,2.24-8.15,7.91,7.91,0,0,1,12.5,0,13.5,13.5,0,0,1,2.24,8.15A13.47,13.47,0,0,1,215.86,40Zm-6.25-.4a4.07,4.07,0,0,0,3.67-2,10.83,10.83,0,0,0,1.27-5.74,10.81,10.81,0,0,0-1.27-5.74,4.35,4.35,0,0,0-7.33,0,10.71,10.71,0,0,0-1.28,5.74A10.73,10.73,0,0,0,206,37.56,4.08,4.08,0,0,0,209.61,39.56Z"/><path class="cls-2" d="M68.52,24.28l-8.86,8.65a1.7,1.7,0,0,1-2.37,0L36.93,13.05a1.62,1.62,0,0,1,0-2.32l8.86-8.65a1.7,1.7,0,0,1,2.37,0L68.52,22A1.62,1.62,0,0,1,68.52,24.28Z"/><path class="cls-3" d="M36.93,35.5l8.86,8.65a1.7,1.7,0,0,0,2.37,0L68.52,24.27a1.62,1.62,0,0,0,0-2.32L59.66,13.3a1.7,1.7,0,0,0-2.37,0L36.93,33.18A1.62,1.62,0,0,0,36.93,35.5Z"/><path class="cls-4" d="M7,36.08l8.86,8.65a1.7,1.7,0,0,0,2.37,0L38.55,24.84a1.62,1.62,0,0,0,0-2.32l-8.86-8.65a1.7,1.7,0,0,0-2.37,0L7,33.76A1.62,1.62,0,0,0,7,36.08Z"/><path class="cls-5" d="M38.55,47.3,29.69,56a1.7,1.7,0,0,1-2.37,0L7,36.06a1.61,1.61,0,0,1,0-2.31l8.86-8.66a1.7,1.7,0,0,1,2.37,0L38.55,45A1.62,1.62,0,0,1,38.55,47.3Z"/></svg>